<svg id="Layer_1" data-name="Layer 1" xmlns="http://www.w3.org/2000/svg" viewBox="0 0 816 313"><defs><style>.cls-1{fill:#ffa506;}.cls-2{fill:#ddd;}</style></defs><title>logogr_white</title><path class="cls-1" d="M144.91,35.15a119.23,119.23,0,0,1,73.68,24.69V35.15h49v98h-53.3A71.9,71.9,0,0,0,188,97.86q-18.81-13.73-43.11-13.72A70.06,70.06,0,0,0,116.3,90,76,76,0,0,0,93,105.89,73.33,73.33,0,0,0,77.3,129.21a74.89,74.89,0,0,0,0,57.22,73,73,0,0,0,39,39,75.12,75.12,0,0,0,59.18-.78,73.1,73.1,0,0,0,24.3-17.84H144.91v-49H267.58V280.11h-49v-24.3a125.24,125.24,0,0,1-33.9,17.83,120.41,120.41,0,0,1-39.78,6.47,118.39,118.39,0,0,1-47.62-9.6,123.77,123.77,0,0,1-65.06-65.06,118.25,118.25,0,0,1-9.6-47.62A119.63,119.63,0,0,1,32.23,110,123.23,123.23,0,0,1,97.29,44.75,118.39,118.39,0,0,1,144.91,35.15Z"/><path class="cls-2" d="M292.31,31.71h52.38q47.93.13,47.93,52.51v70.69q0,32.94-28.35,43.36l40.43,82.89H365.29l-32.42-76.53-4.58.63v75.9h-36Zm36,35.48V171.82h8.26c5,0,8.44-.34,10.3-1q9.79-3.93,9.79-15.89V84.22q0-17-15.64-17Z"/><path class="cls-2" d="M525.87,232.72q0,52.38-51.75,52.51T422.5,232.72V80.15q0-52.38,51.62-52.38t51.75,52.38Zm-36-152.57q0-16.79-15.64-16.91H474q-15.51,0-15.51,16.91V232.72q0,16.92,15.64,16.91t15.77-16.91Z"/><path class="cls-2" d="M606.6,88.92,581.17,281.16H544.94L582.06,31.71H631.4l37,249.45H632Z"/><path class="cls-2" d="M690,31.71h55.43q47.94.13,47.93,52.51V228.78q0,52.26-50.22,52.38H690Zm36,35.48v178.5h15.76q15.64,0,15.64-16.91V84.22q0-17-15.64-17Z"/></svg>